M48
; DRILL file {KiCad (5.1.9)-1} date 08/20/21 11:34:58
; FORMAT={-:-/ absolute / inch / decimal}
; #@! TF.CreationDate,2021-08-20T11:34:58-03:00
; #@! TF.GenerationSoftware,Kicad,Pcbnew,(5.1.9)-1
; #@! TF.FileFunction,Plated,1,2,PTH
FMAT,2
INCH
T1C0.0315
T2C0.0394
T3C0.0598
T4C0.0984
%
G90
G05
T1
X5.565Y-3.996
X5.565Y-4.396
X6.2Y-3.585
X6.4953Y-3.6401
T2
X4.7575Y-2.8734
X4.7575Y-3.4797
X4.965Y-3.765
X4.965Y-4.665
X5.065Y-3.765
X5.065Y-4.665
X5.165Y-3.765
X5.165Y-3.89
X5.165Y-4.665
X5.265Y-3.765
X5.265Y-3.89
X5.265Y-4.665
X5.27Y-4.53
X5.365Y-3.765
X5.365Y-3.89
X5.365Y-4.665
X5.37Y-4.14
X5.37Y-4.24
X5.37Y-4.53
X5.465Y-3.765
X5.465Y-3.89
X5.465Y-4.665
X5.47Y-4.53
X5.565Y-3.765
X5.565Y-4.665
X5.57Y-4.53
X5.665Y-3.765
X5.665Y-3.88
X5.665Y-4.665
X5.67Y-4.53
X5.765Y-3.88
X5.77Y-4.53
X5.915Y-3.0781
X5.915Y-3.275
T3
X6.3179Y-3.0806
X6.3179Y-3.2806
X6.3179Y-4.1042
X6.3179Y-4.3042
T4
X6.3179Y-3.8514
X6.3179Y-4.59
T0
M30
