%TF.GenerationSoftware,KiCad,Pcbnew,(5.1.9)-1*%
%TF.CreationDate,2021-08-20T11:33:55-03:00*%
%TF.ProjectId,SmartLightMk1,536d6172-744c-4696-9768-744d6b312e6b,rev?*%
%TF.SameCoordinates,Original*%
%TF.FileFunction,Copper,L1,Top*%
%TF.FilePolarity,Positive*%
%FSLAX46Y46*%
G04 Gerber Fmt 4.6, Leading zero omitted, Abs format (unit mm)*
G04 Created by KiCad (PCBNEW (5.1.9)-1) date 2021-08-20 11:33:55*
%MOMM*%
%LPD*%
G01*
G04 APERTURE LIST*
%TA.AperFunction,ComponentPad*%
%ADD10O,1.700000X1.700000*%
%TD*%
%TA.AperFunction,ComponentPad*%
%ADD11R,1.700000X1.700000*%
%TD*%
%TA.AperFunction,ComponentPad*%
%ADD12C,3.000000*%
%TD*%
%TA.AperFunction,ComponentPad*%
%ADD13R,3.000000X3.000000*%
%TD*%
%TA.AperFunction,ComponentPad*%
%ADD14O,1.600000X2.000000*%
%TD*%
%TA.AperFunction,ComponentPad*%
%ADD15R,2.000000X2.000000*%
%TD*%
%TA.AperFunction,ComponentPad*%
%ADD16C,2.300000*%
%TD*%
%TA.AperFunction,ComponentPad*%
%ADD17R,2.300000X2.000000*%
%TD*%
%TA.AperFunction,ComponentPad*%
%ADD18C,1.600000*%
%TD*%
%TA.AperFunction,ComponentPad*%
%ADD19O,1.600000X1.600000*%
%TD*%
%TA.AperFunction,ComponentPad*%
%ADD20C,4.000000*%
%TD*%
%TA.AperFunction,ComponentPad*%
%ADD21C,1.800000*%
%TD*%
G04 APERTURE END LIST*
D10*
%TO.P,J7,4*%
%TO.N,D4*%
X138811000Y-98806000D03*
%TO.P,J7,3*%
%TO.N,D3*%
X136271000Y-98806000D03*
%TO.P,J7,2*%
%TO.N,D2*%
X133731000Y-98806000D03*
D11*
%TO.P,J7,1*%
%TO.N,D1*%
X131191000Y-98806000D03*
%TD*%
D12*
%TO.P,J2,2*%
%TO.N,Net-(J1-Pad2)*%
X160475000Y-104246000D03*
D13*
%TO.P,J2,1*%
%TO.N,Net-(J2-Pad1)*%
X160475000Y-109326000D03*
%TD*%
D12*
%TO.P,J1,2*%
%TO.N,Net-(J1-Pad2)*%
X160475000Y-78246000D03*
D13*
%TO.P,J1,1*%
%TO.N,Net-(J1-Pad1)*%
X160475000Y-83326000D03*
%TD*%
D11*
%TO.P,J6,1*%
%TO.N,GND*%
X146558000Y-115062000D03*
D10*
%TO.P,J6,2*%
%TO.N,+3V3*%
X144018000Y-115062000D03*
%TO.P,J6,3*%
%TO.N,D8*%
X141478000Y-115062000D03*
%TO.P,J6,4*%
%TO.N,D7*%
X138938000Y-115062000D03*
%TO.P,J6,5*%
%TO.N,D6*%
X136398000Y-115062000D03*
%TO.P,J6,6*%
%TO.N,D5*%
X133858000Y-115062000D03*
%TD*%
D14*
%TO.P,U1,2*%
%TO.N,Net-(U1-Pad2)*%
X128651000Y-118491000D03*
D15*
%TO.P,U1,1*%
%TO.N,Net-(JP1-Pad2)*%
X126111000Y-118491000D03*
D14*
%TO.P,U1,3*%
%TO.N,D0*%
X131191000Y-118491000D03*
%TO.P,U1,4*%
%TO.N,D5*%
X133731000Y-118491000D03*
%TO.P,U1,5*%
%TO.N,D6*%
X136271000Y-118491000D03*
%TO.P,U1,6*%
%TO.N,D7*%
X138811000Y-118491000D03*
%TO.P,U1,7*%
%TO.N,D8*%
X141351000Y-118491000D03*
%TO.P,U1,8*%
%TO.N,+3V3*%
X143891000Y-118491000D03*
%TO.P,U1,9*%
%TO.N,+5V*%
X143891000Y-95631000D03*
%TO.P,U1,10*%
%TO.N,GND*%
X141351000Y-95631000D03*
%TO.P,U1,11*%
%TO.N,D4*%
X138811000Y-95631000D03*
%TO.P,U1,12*%
%TO.N,D3*%
X136271000Y-95631000D03*
%TO.P,U1,13*%
%TO.N,D2*%
X133731000Y-95631000D03*
%TO.P,U1,14*%
%TO.N,D1*%
X131191000Y-95631000D03*
%TO.P,U1,15*%
%TO.N,Net-(U1-Pad15)*%
X128651000Y-95631000D03*
%TO.P,U1,16*%
%TO.N,Net-(U1-Pad16)*%
X126111000Y-95631000D03*
%TD*%
D16*
%TO.P,PS1,3*%
%TO.N,GND*%
X120841000Y-88385000D03*
D17*
%TO.P,PS1,1*%
%TO.N,Net-(J1-Pad1)*%
X150241000Y-83185000D03*
D16*
%TO.P,PS1,2*%
%TO.N,Net-(J1-Pad2)*%
X150241000Y-78185000D03*
%TO.P,PS1,4*%
%TO.N,+5V*%
X120841000Y-72985000D03*
%TD*%
D18*
%TO.P,R1,1*%
%TO.N,D2*%
X141351000Y-111658400D03*
D19*
%TO.P,R1,2*%
%TO.N,GND*%
X141351000Y-101498400D03*
%TD*%
D20*
%TO.P,J3,1*%
%TO.N,Net-(J1-Pad1)*%
X160475000Y-97826000D03*
%TD*%
%TO.P,J4,1*%
%TO.N,Net-(J2-Pad1)*%
X160475000Y-116586000D03*
%TD*%
D21*
%TO.P,RV1,1*%
%TO.N,Net-(J1-Pad1)*%
X157480000Y-91059000D03*
%TO.P,RV1,2*%
%TO.N,Net-(J1-Pad2)*%
X164980000Y-92459000D03*
%TD*%
D11*
%TO.P,JP2,1*%
%TO.N,+3V3*%
X136398000Y-107696000D03*
D10*
%TO.P,JP2,2*%
%TO.N,D2*%
X136398000Y-105156000D03*
%TD*%
D11*
%TO.P,J5,1*%
%TO.N,+5V*%
X143891000Y-98552000D03*
D10*
%TO.P,J5,2*%
%TO.N,GND*%
X146431000Y-98552000D03*
%TD*%
M02*
